<svg xmlns="http://www.w3.org/2000/svg" version="1.1" viewBox="0 0 1024 1024">
    <path fill="white" stroke='black' d="M512 987.428571A475.428571 475.428571 0 0 1 254.171429 112.493714a36.571429 36.571429 0 0 1 39.716571 61.44 402.285714 402.285714 0 1 0 442.88 4.388572 36.571429 36.571429 0 1 1 40.96-60.635429A475.428571 475.428571 0 0 1 512 987.428571zM512 365.714286a36.571429 36.571429 0 0 1-36.571429-36.571429v-292.571428a36.571429 36.571429 0 1 1 73.142858 0v292.571428A36.571429 36.571429 0 0 1 512 365.714286z"/>
</svg>